<?xml version="1.0" encoding="utf-8"?>
<!-- Generator: Adobe Illustrator 26.4.1, SVG Export Plug-In . SVG Version: 6.00 Build 0)  -->
<svg version="1.1" id="Layer_1" xmlns="http://www.w3.org/2000/svg" xmlns:xlink="http://www.w3.org/1999/xlink" x="0px" y="0px"
	 viewBox="0 0 160.5 154.6" style="enable-background:new 0 0 160.5 154.6;" xml:space="preserve">
<style type="text/css">
	.st0{fill:#F1636E;}
	.st1{fill:#EF4049;}
</style>
<g>
	<g>
		<g>
			<g>
				<path class="st0" d="M89.9,62.1c0.2,0,0.3,0.3,0.1,0.4c-16.3,6.7-32,17.2-43,31.4c-9.6,12.5-15.6,26.4-18.6,43.2
					c0,0.1-0.2,0.2-0.3,0.1c-16.6-10.7-26-31.4-27.7-48.9c-2.1-20.8,4-37.7,10.9-55c3.7-9.2,5.8-20,6.3-22.6c0-0.2,0.2-0.2,0.3-0.1
					c0.6,0.9,2.2,2.6,2.5,3c1.5,2,3,3.9,4.4,6.1c10.6,17.1,27.7,34.4,51.5,41C79.4,61.5,85,62.3,89.9,62.1z"/>
			</g>
		</g>
		<g>
			<path class="st0" d="M160.4,72.1c0.1,0,0.1,0.2,0,0.2c-3.5,0.7-11.1,13-12.4,15.2c-3.7,6.1-6.4,12.8-9.4,19.2
				c-6,13-13.2,26.1-25,35.2c-2.1,1.7-4.4,3.1-6.8,4.5c-16.6,9.2-37.3,10.8-55,3.8c-2.4-0.9-4.8-2-7-3.3c-2.4-1.4-1.5-4.7-1.1-7
				c2.7-18.2,17.4-39.4,32.3-51.1C96.7,72.7,124.6,61.3,160.4,72.1z"/>
		</g>
		<g>
			<g>
				<path class="st1" d="M117.2,55c-1.1,0-2.1-0.1-3.2-0.3c-0.1,0-0.2-0.2-0.1-0.3c5.5-2.6,11.3-5.7,13.1-11.4
					c7-23.1-29.9-32.2-46.8-31.4c-4.4,0.2-9,1-12.2,3.8c-5,4.4-2.7,10.8,1.9,15.1c5,4.7,11.7,7.7,18.4,8.5c4.3,0.5,9.6-0.8,10.4-4.8
					c0.5-2.8-1.4-5.6-3.8-7.4c-1.5-1.2-3.4-2.1-5.3-2.1c-1.9-0.1-3.9,0.9-4.5,2.6c-0.6,1.5,0.2,3.5,1.7,4.3c0.1,0.1,0.1,0.3-0.1,0.3
					C84.2,31.8,82,29.4,82,27c0-2.6,2.1-4.7,4.5-5.6c13.4-4.6,37.1,12,23.2,24.6c-5.7,5.2-15,5.6-22.8,4
					C70.8,46.8,53.2,36.9,43.5,23C28.1,1,72.5-0.8,83.8,0.2c25.8,2.4,53.8,15.4,60,35c1.9,6.1-0.7,11.3-5.3,14.6
					c-3.1,2.3-7.1,3.3-10.9,4.1c-2.1,0.4-4.1,0.7-6.2,0.9C119.9,55,118.6,55,117.2,55z"/>
			</g>
		</g>
	</g>
</g>
</svg>
