<?xml version="1.0" encoding="utf-8"?>
<!-- Generator: Adobe Illustrator 26.3.1, SVG Export Plug-In . SVG Version: 6.00 Build 0)  -->
<svg version="1.1" id="Layer_1" xmlns="http://www.w3.org/2000/svg" xmlns:xlink="http://www.w3.org/1999/xlink" x="0px" y="0px"
	 viewBox="0 0 125.1 243.1" style="enable-background:new 0 0 125.1 243.1;" xml:space="preserve">
<style type="text/css">
	.st0{fill:#F1636E;}
	.st1{fill:#EF4049;}
</style>
<g>
	<g>
		<g>
			<path class="st0" d="M71.6,44c-10.2,4.3-20.1,10.9-26.9,19.5c-5.6,7.2-9,14.8-10.7,23.6c-9.2-5.3-13.5-16-14.9-26
				C17.2,48.4,19,36.6,23,24.5c2.5-7.7,3.8-17.4,3.8-17.4c0,0.3,1.6,2.3,1.9,2.7c1,1.6,2,3,2.9,4.7C38.5,27,48.8,38.9,62.9,43.1
				C64.8,43.7,68.5,44.2,71.6,44z"/>
		</g>
	</g>
	<g>
		<path class="st0" d="M118.3,47.5c-8.9,6.7-13.2,15.9-17.1,24.3C96,82.9,91.5,92.5,78.3,96.6c-11.5,3.5-29.8,5.4-32.7-2
			c-0.3-0.7-0.4-1.5-0.4-2.4c-0.3-8.6,10.4-24.8,17.1-30.7c11.2-9.8,30.4-14.3,47.8-14.3C112.9,47.1,115.7,47.2,118.3,47.5z"/>
	</g>
	<g>
		<g>
			<path class="st1" d="M92.3,40.9c-2,0-4-0.2-5.9-0.6c0.4,0.1,1.4-0.5,1.8-0.7c0.6-0.3,1.2-0.6,1.8-0.9c1.2-0.7,2.3-1.6,3.2-2.6
				c3.2-3.5,3.7-8.5,1.2-12.6c-1.2-1.9-2.8-3.6-4.4-5.1c-3-2.7-6.5-4.8-10.2-6.2c-1.8-0.7-3.7-1.2-5.6-1.6c-2.3-0.5-5.1-0.8-8-0.8
				c-4,0-8.1,0.7-10.6,2.9c-0.9,0.8-1.7,1.9-1.8,3.2c0,0.8,0.2,1.5,0.4,2.2c1.9,4.8,9.4,10.3,15.6,10.3c1.4,0,2.7-0.3,3.9-0.9
				c1.4-0.8,2.4-2.3,2.3-3.8c-0.1-1.4-1-2.6-2-3.6c-1.2-1.2-2.7-2.2-4.4-2.3h-0.1c-1.7,0-3.3,1.3-3.2,2.8c0.1,1.2,1.2,2.1,2.1,2.9
				c-1.7-0.2-3.2-1.4-3.7-2.9c-0.5-1.6,0-3.3,1.3-4.3c0.9-0.7,2.1-1,3.2-1.1C69.8,15,70.4,15,71,15c4.8,0,9.7,2.4,12.5,6.2
				c0.4,0.5,0.7,1,1,1.6c2.8,5.6-0.9,13-7,14.1c-1,0.2-1.9,0.3-2.9,0.3c-6.9,0-14.4-3.8-19.9-7.1c-2.5-1.5-6-4.2-9-7.4
				s-5.4-6.9-5.6-10.3c-0.1-2.6,1-5,4.1-7c4.3-2.7,9.6-4.2,14.6-4.9C60.9,0.2,63.2,0,65.5,0c18,0,37.3,9.2,42.4,25.5
				C111.4,36.4,101.8,40.9,92.3,40.9z"/>
		</g>
	</g>
</g>
</svg>
