<?xml version="1.0" encoding="utf-8"?>
<!-- Generator: Adobe Illustrator 26.4.1, SVG Export Plug-In . SVG Version: 6.00 Build 0)  -->
<svg version="1.1" id="Layer_1" xmlns="http://www.w3.org/2000/svg" xmlns:xlink="http://www.w3.org/1999/xlink" x="0px" y="0px"
	 viewBox="0 0 935.3 143.7" style="enable-background:new 0 0 935.3 143.7;" xml:space="preserve">
<style type="text/css">
	.st0{fill:#010101;}
	.st1{fill:#ED2126;}
	.st2{fill:#221F1F;}
	.st3{fill:#F1636E;}
	.st4{fill:#EF4049;}
</style>
<g>
	<g>
		<path class="st0" d="M99.6,116L75.7,81.2h-2.2V116h-4.9V42.2h10.6c5.6,0,10.7,0.4,15.6,3.8c5.8,4,7.6,10.1,7.6,15.8
			c0,7.3-3.2,14.8-12.4,17.9c-3.9,1.3-7.4,1.4-9.1,1.4l24.1,34.8H99.6z M73.5,76.7h7.1c10.5,0,16.8-5.5,16.8-15
			c0-7.4-3.7-11.3-6.5-12.8c-3.1-1.8-8.4-2.2-11.3-2.2h-6.1V76.7z"/>
		<path class="st0" d="M126.9,42.2V116h-4.9V42.2H126.9z"/>
		<path class="st0" d="M145.4,42.2l21.7,62.8l21-62.8h5.3L167.1,119l-27-76.8H145.4z"/>
		<path class="st0" d="M242,46.7h-30.5v26.8h29.9v4.4h-29.9v33.7H242v4.4h-35.4V42.2H242V46.7z"/>
		<path class="st0" d="M290.6,116l-23.9-34.8h-2.2V116h-4.9V42.2h10.6c5.6,0,10.7,0.4,15.6,3.8c5.8,4,7.6,10.1,7.6,15.8
			c0,7.3-3.2,14.8-12.4,17.9c-3.9,1.3-7.4,1.4-9.1,1.4l24.1,34.8H290.6z M264.5,76.7h7.1c10.5,0,16.8-5.5,16.8-15
			c0-7.4-3.7-11.3-6.5-12.8c-3.1-1.8-8.4-2.2-11.3-2.2h-6.1V76.7z"/>
	</g>
	<g>
		<path class="st1" d="M343.1,116l-23.9-34.8H317V116h-4.9V42.2h10.6c5.6,0,10.7,0.4,15.6,3.8c5.8,4,7.6,10.1,7.6,15.8
			c0,7.3-3.2,14.8-12.4,17.9c-3.9,1.3-7.4,1.4-9.1,1.4l24.1,34.8H343.1z M317,76.7h7.1c10.5,0,16.8-5.5,16.8-15
			c0-7.4-3.7-11.3-6.5-12.8c-3.1-1.8-8.4-2.2-11.3-2.2H317V76.7z"/>
		<path class="st1" d="M437.6,79.3c0,21.2-16.7,37.9-38.3,37.9c-21.7,0-38.3-16.7-38.3-37.9s16.7-38,38.3-38S437.6,58.1,437.6,79.3z
			 M432.5,79.3c0-18.9-14.2-33.6-33.2-33.6s-33.2,14.7-33.2,33.6c0,18.8,14.2,33.5,33.2,33.5S432.5,98.1,432.5,79.3z"/>
		<path class="st1" d="M489.5,54.7c-4.5-8.8-12.5-9.1-14.5-9.1c-8.7,0-13.7,6.3-13.7,13.7c0,8,5.5,10.6,12.9,14.3
			c7.3,3.5,11,5.1,14.7,7.7c3.2,2.2,7.9,6.1,7.9,14.3c0,12.4-10.4,21.6-23,21.6c-9.5,0-14.4-4.5-17.1-7.7c-2.9-3.3-4.1-6.2-4.8-8.1
			l4.2-2c1,2.9,2.9,5.8,4,7.1c3.3,4.2,8.7,6.3,13.8,6.3c10,0,17.8-7.3,17.8-17c0-4-1.5-8.2-7.2-11.6c-2.1-1.2-6.4-3.4-12.5-6.4
			c-7.3-3.5-11-5.5-13.5-9.7c-1.7-2.8-2.3-5.5-2.3-8.4c0-8.5,5.8-18.4,18.9-18.4c7.4,0,14.2,3.5,17.9,10.5L489.5,54.7z"/>
		<path class="st1" d="M550.5,46.7h-30.5v26.8h29.9v4.4h-29.9v33.7h30.5v4.4h-35.4V42.2h35.4V46.7z"/>
	</g>
	<g>
		<g>
			<path class="st0" d="M561.2,115.7V41.2H576c6.6,0,18.1,1,27.5,10.4c7.9,7.9,10.7,18.8,10.7,26.9s-2.8,18.9-10.7,26.8
				c-9.4,9.4-20.9,10.4-27.5,10.4H561.2z M566.2,111.3h9.7c19.7,0,33.2-13.4,33.2-32.7c0-19.1-13.6-32.9-33.2-32.9h-9.7V111.3z"/>
			<path class="st0" d="M667.2,45.6h-30.9v27h30.2v4.5h-30.2v34.1h30.9v4.5h-35.8V41.2h35.8V45.6z"/>
			<path class="st0" d="M718.4,53.8c-4.6-8.9-12.6-9.2-14.6-9.2c-8.8,0-13.9,6.4-13.9,13.9c0,8,5.6,10.7,13.1,14.4
				c7.4,3.6,11.1,5.1,14.9,7.8c3.2,2.2,7.9,6.1,7.9,14.4c0,12.5-10.5,21.8-23.3,21.8c-9.6,0-14.5-4.6-17.3-7.8
				c-2.9-3.4-4.1-6.3-4.8-8.2l4.2-2c1,2.9,2.9,5.8,4,7.2c3.4,4.2,8.8,6.4,14,6.4c10.1,0,18-7.4,18-17.2c0-4-1.6-8.3-7.3-11.7
				c-2.1-1.2-6.5-3.5-12.6-6.5c-7.4-3.6-11.1-5.6-13.6-9.8c-1.7-2.8-2.3-5.6-2.3-8.5c0-8.6,5.8-18.6,19.1-18.6
				c7.5,0,14.3,3.6,18.1,10.6L718.4,53.8z"/>
			<path class="st0" d="M747.9,41.2v74.6H743V41.2H747.9z"/>
			<path class="st0" d="M808.1,80h31.3c0,6.8-1.5,16.7-7.6,24.5c-6.6,8.4-16.7,12.5-28.1,12.5c-21.9,0-38.6-16.1-38.6-38.3
				c0-22.1,17.2-38.4,38.9-38.4c10.5,0,17.5,3.6,23.4,8c3.1,2.5,5.9,5.1,8.9,9.4l-3.9,3.1c-2.1-3.6-5.1-6.6-7.2-8.3
				c-4.7-3.9-12.1-7.8-21.4-7.8c-19.1,0-33.6,15.2-33.6,34.2c0,18.7,14.1,33.6,33.3,33.6c12.7,0,21.9-6.5,25.9-12.6
				c2.9-4.5,4.7-10.6,4.9-15.4h-26.4V80z"/>
			<path class="st0" d="M856.6,115.7V40.4l62.6,65.5V41.2h4.9v76.5l-62.6-65.5v63.6H856.6z"/>
		</g>
	</g>
</g>
<g>
	<g>
		<path class="st2" d="M33.2,118.9c2-7,1.9-12.5,0.3-18.7c-1.5-5.5-5.1-9.7-8.7-13.9c-9-10.5-14.5-24.6-9-38.6
			c0.1-0.1,0.3-0.1,0.3,0.1c-0.7,4.2,0,9.3,0.6,12.6c0.9,4.8,2.6,9.2,4.9,13.4c4,7.4,11.1,12.8,14.7,20.4
			C40,102.3,38.9,114.1,33.2,118.9z"/>
	</g>
	<g>
		<g>
			<g>
				<path class="st3" d="M33.9,20c0.1,0,0.1,0.1,0,0.1c-5.2,2.2-10.3,5.5-13.8,10.1c-3.1,4-5,8.5-6,13.9c0,0-0.1,0.1-0.1,0
					c-5.4-3.5-8.4-10.1-8.9-15.7c-0.7-6.7,1.3-12.1,3.5-17.7c1.2-3,1.9-6.5,2-7.3c0-0.1,0.1-0.1,0.1,0c0.2,0.3,0.7,0.8,0.8,1
					c0.5,0.6,1,1.3,1.4,2c3.4,5.5,8.9,11.1,16.6,13.2C30.5,19.8,32.3,20.1,33.9,20z"/>
			</g>
		</g>
		<g>
			<path class="st3" d="M56.6,23.2C56.6,23.2,56.6,23.3,56.6,23.2c-1.1,0.3-3.6,4.2-4,5c-1.2,2-2.1,4.1-3,6.2
				c-1.9,4.2-4.2,8.4-8.1,11.4c-0.7,0.5-1.4,1-2.2,1.4c-5.3,3-12,3.5-17.7,1.2c-0.8-0.3-1.5-0.6-2.2-1.1c-0.8-0.4-0.5-1.5-0.4-2.3
				c0.9-5.9,5.6-12.7,10.4-16.5C36.1,23.4,45,19.7,56.6,23.2z"/>
		</g>
		<g>
			<g>
				<path class="st4" d="M42.7,17.7c-0.3,0-0.7,0-1-0.1c0,0-0.1-0.1,0-0.1c1.8-0.8,3.6-1.8,4.2-3.7c2.3-7.4-9.6-10.4-15.1-10.1
					c-1.4,0.1-2.9,0.3-3.9,1.2c-1.6,1.4-0.9,3.5,0.6,4.9c1.6,1.5,3.8,2.5,5.9,2.7c1.4,0.2,3.1-0.2,3.4-1.5c0.2-0.9-0.4-1.8-1.2-2.4
					C35,8.3,34.4,8,33.8,7.9c-0.6,0-1.2,0.3-1.5,0.8c-0.2,0.5,0.1,1.1,0.5,1.4c0,0,0,0.1,0,0.1c-0.8,0-1.5-0.8-1.5-1.6
					c0-0.8,0.7-1.5,1.5-1.8c4.3-1.5,11.9,3.9,7.5,7.9c-1.8,1.7-4.8,1.8-7.3,1.3c-5.2-1.1-10.9-4.2-14-8.7c-5-7.1,9.4-7.7,13-7.3
					C40.2,0.8,49.2,5,51.2,11.3c0.6,2-0.2,3.6-1.7,4.7c-1,0.7-2.3,1.1-3.5,1.3c-0.7,0.1-1.3,0.2-2,0.3
					C43.5,17.7,43.1,17.7,42.7,17.7z"/>
			</g>
		</g>
	</g>
	<g>
		<path class="st2" d="M38.9,90.8c-0.1-0.2-0.2-0.4-0.3-0.6c-6.1-11.3-1.9-25.8,9.5-32.6c0.1-0.1,0.2-0.1,0.4-0.2
			c1.3-0.7,2.7-1.4,4.1-1.8c0.7,0.9,1.4,1.9,2,2.9c0.1,0.3,0.3,0.5,0.4,0.8c6,11.4,2,25.8-9.5,32.5c-0.1,0.1-0.2,0.1-0.3,0.2
			c-1.3,0.8-2.7,1.4-4.1,1.9C40.3,93,39.6,91.9,38.9,90.8z"/>
	</g>
	<g>
		<path class="st2" d="M4.3,85.2c0.2,0,0.4,0,0.7,0C18.5,85.1,30,96.1,30.7,110c0,0.1,0,0.3,0,0.4c0.1,1.6,0,3.1-0.3,4.7
			c-1.2,0.2-2.4,0.4-3.7,0.4c-0.3,0-0.6,0-0.9,0c-13.7,0-25.1-10.8-25.8-24.8c0-0.1,0-0.3,0-0.4c-0.1-1.6,0-3.2,0.3-4.7
			C1.6,85.4,2.9,85.2,4.3,85.2z"/>
	</g>
</g>
</svg>
