<?xml version="1.0" encoding="utf-8"?>
<!-- Generator: Adobe Illustrator 26.3.1, SVG Export Plug-In . SVG Version: 6.00 Build 0)  -->
<svg version="1.1" id="Layer_1" xmlns="http://www.w3.org/2000/svg" xmlns:xlink="http://www.w3.org/1999/xlink" x="0px" y="0px"
	 viewBox="0 0 529.6 230.3" style="enable-background:new 0 0 529.6 230.3;" xml:space="preserve">
<style type="text/css">
	.st0{fill:#010101;}
	.st1{font-family:'FuturaPT-Light';}
	.st2{font-size:91.3988px;}
	.st3{letter-spacing:2;}
	.st4{fill:#ED2126;}
	.st5{font-size:123.9943px;}
	.st6{fill:#221F1F;}
	.st7{fill:#F1636E;}
	.st8{fill:#EF4049;}
</style>
<g>
	<text transform="matrix(1.0002 0 0 1 109.9604 102.4308)" class="st0 st1 st2 st3">RIVER</text>
	<text transform="matrix(1.0002 0 0 1 310.6948 102.4289)" class="st4 st1 st2 st3">ROSE</text>
	<g>
		<text transform="matrix(1.0002 0 0 1 106.4136 199.3273)" class="st0 st1 st5">DESIGN</text>
	</g>
	<g>
		<g>
			<path class="st6" d="M100.5,88.9c0.2,0.3,0.4,0.7,0.5,1c10.1,20.9,1.4,47-19.7,58.2c-0.2,0.1-0.4,0.2-0.7,0.4
				c-2.4,1.2-4.9,2.2-7.5,3c-1.2-1.7-2.4-3.5-3.3-5.4c-0.2-0.5-0.5-1-0.7-1.4c-10-21.3-1.6-46.9,19.7-58.2c0.2-0.1,0.4-0.2,0.6-0.3
				c2.5-1.3,5-2.3,7.5-3.1C98.2,84.9,99.4,86.8,100.5,88.9z"/>
		</g>
		<g>
			<path class="st6" d="M6.8,141.4c0.4,0,0.8-0.1,1.1-0.1c23.1-2.4,44.7,14.6,48.2,38.3c0,0.2,0.1,0.5,0.1,0.7
				c0.4,2.7,0.5,5.4,0.3,8.1c-2,0.6-4.1,1-6.3,1.3c-0.5,0.1-1.1,0.1-1.6,0.2C25.3,192.1,4,175.4,0.5,151.7c0-0.2-0.1-0.4-0.1-0.7
				c-0.4-2.7-0.5-5.5-0.3-8.1C2.2,142.2,4.5,141.7,6.8,141.4z"/>
		</g>
		<g>
			<path class="st6" d="M63.6,203.7c1.7-17.8,1.7-36.6-11.3-51C33.8,133.3,22,105.3,33.5,80.3c-4,25.1,9.6,49.9,28,68.9
				C75.4,164.4,74.3,185.6,63.6,203.7L63.6,203.7z"/>
		</g>
		<g>
			<g>
				<path class="st7" d="M60.9,36.8c-8.5,3.6-16.8,9.1-22.5,16.3c-4.7,6-7.5,12.4-8.9,19.8C21.8,68.4,18.3,59.5,17,51.1
					c-1.6-10.6-0.1-20.4,3.2-30.6C22.4,14.1,23.5,6,23.5,6c0,0.3,1.3,1.9,1.6,2.3c0.9,1.3,1.7,2.5,2.5,3.9
					c5.7,10.4,14.4,20.4,26.2,23.9C55.3,36.6,58.3,37,60.9,36.8z"/>
			</g>
		</g>
		<g>
			<path class="st7" d="M100,39.7C92.6,45.2,89,53,85.7,60c-4.4,9.3-8.1,17.3-19.2,20.8c-9.6,3-24.9,4.5-27.3-1.7
				c-0.2-0.6-0.4-1.3-0.4-2c-0.2-7.2,8.7-20.7,14.3-25.7c9.4-8.2,25.4-12,40-12C95.5,39.4,97.8,39.5,100,39.7z"/>
		</g>
		<g>
			<g>
				<path class="st8" d="M78.2,34.2c-1.7,0-3.4-0.2-4.9-0.5c0.3,0.1,1.2-0.4,1.5-0.6c0.5-0.2,1-0.5,1.5-0.8c1-0.6,1.9-1.3,2.7-2.2
					c2.7-2.9,3.1-7.1,1-10.5c-1-1.6-2.3-3-3.7-4.3c-2.5-2.3-5.4-4-8.6-5.2c-1.5-0.6-3.1-1-4.7-1.3C61.2,8.3,58.8,8,56.4,8
					c-3.4,0-6.8,0.6-8.9,2.5c-0.8,0.7-1.4,1.6-1.5,2.7c0,0.6,0.1,1.3,0.4,1.9c1.6,4,7.8,8.6,13,8.6c1.2,0,2.3-0.2,3.2-0.7
					c1.2-0.6,2-1.9,1.9-3.2c-0.1-1.1-0.8-2.2-1.7-3c-1-1-2.2-1.9-3.7-1.9h-0.1c-1.4,0-2.8,1-2.7,2.4c0.1,1,1,1.8,1.8,2.4
					c-1.4-0.1-2.7-1.1-3.1-2.4c-0.4-1.3,0-2.8,1.1-3.6c0.8-0.6,1.7-0.8,2.7-0.9c0.5-0.1,1-0.1,1.5-0.1c4,0,8.1,2,10.5,5.2
					c0.3,0.4,0.6,0.9,0.8,1.3c2.3,4.6-0.7,10.9-5.9,11.8c-0.8,0.1-1.6,0.2-2.5,0.2c-5.8,0-12-3.1-16.7-5.9c-2.1-1.2-5.1-3.5-7.5-6.2
					c-2.5-2.7-4.5-5.8-4.7-8.6c-0.1-2.2,0.8-4.2,3.4-5.8c3.6-2.3,8-3.5,12.2-4.1C52,0.1,53.9,0,55.8,0c15,0,31.1,7.7,35.5,21.3
					C94.2,30.4,86.2,34.2,78.2,34.2z"/>
			</g>
		</g>
	</g>
</g>
</svg>
