<?xml version="1.0" encoding="utf-8"?>
<!-- Generator: Adobe Illustrator 26.4.1, SVG Export Plug-In . SVG Version: 6.00 Build 0)  -->
<svg version="1.1" id="Layer_1" xmlns="http://www.w3.org/2000/svg" xmlns:xlink="http://www.w3.org/1999/xlink" x="0px" y="0px"
	 viewBox="0 0 520.7 229.1" style="enable-background:new 0 0 520.7 229.1;" xml:space="preserve">
<style type="text/css">
	.st0{fill:#010101;}
	.st1{fill:#ED2126;}
	.st2{fill:#221F1F;}
	.st3{fill:#F1636E;}
	.st4{fill:#EF4049;}
</style>
<g>
	<g>
		<path class="st0" d="M134.9,101.2l-19.7-28.8h-1.8v28.8h-4v-61h8.8c4.7,0,8.9,0.4,12.9,3.1c4.8,3.3,6.3,8.3,6.3,13.1
			c0,6-2.7,12.2-10.2,14.8c-3.2,1.1-6.1,1.2-7.5,1.2l19.9,28.8H134.9z M113.3,68.8h5.9c8.7,0,13.9-4.6,13.9-12.4
			c0-6.1-3-9.3-5.4-10.6c-2.6-1.5-6.9-1.8-9.3-1.8h-5V68.8z"/>
		<path class="st0" d="M158.6,40.2v61h-4v-61H158.6z"/>
		<path class="st0" d="M175.1,40.2L193,92.2l17.4-51.9h4.4L193,103.7l-22.3-63.4H175.1z"/>
		<path class="st0" d="M256.1,43.9h-25.2V66h24.7v3.7h-24.7v27.9h25.2v3.7h-29.3v-61h29.3V43.9z"/>
		<path class="st0" d="M297.4,101.2l-19.7-28.8h-1.8v28.8h-4v-61h8.8c4.7,0,8.9,0.4,12.9,3.1c4.8,3.3,6.3,8.3,6.3,13.1
			c0,6-2.7,12.2-10.2,14.8c-3.2,1.1-6.1,1.2-7.5,1.2l19.9,28.8H297.4z M275.8,68.8h5.9c8.7,0,13.9-4.6,13.9-12.4
			c0-6.1-3-9.3-5.4-10.6c-2.6-1.5-6.9-1.8-9.3-1.8h-5V68.8z"/>
	</g>
	<g>
		<path class="st1" d="M335.6,101.2l-19.7-28.8H314v28.8h-4v-61h8.8c4.7,0,8.9,0.4,12.9,3.1c4.8,3.3,6.3,8.3,6.3,13.1
			c0,6-2.7,12.2-10.2,14.8c-3.2,1.1-6.1,1.2-7.5,1.2l19.9,28.8H335.6z M314,68.8h5.9c8.7,0,13.9-4.6,13.9-12.4c0-6.1-3-9.3-5.4-10.6
			c-2.6-1.5-6.9-1.8-9.3-1.8h-5V68.8z"/>
		<path class="st1" d="M414.5,70.9c0,17.5-13.8,31.4-31.6,31.4c-17.9,0-31.6-13.8-31.6-31.4s13.8-31.4,31.6-31.4
			S414.5,53.3,414.5,70.9z M410.3,70.9c0-15.6-11.7-27.8-27.4-27.8s-27.4,12.2-27.4,27.8c0,15.5,11.7,27.7,27.4,27.7
			S410.3,86.4,410.3,70.9z"/>
		<path class="st1" d="M458.2,50.6c-3.7-7.3-10.3-7.5-12-7.5c-7.2,0-11.3,5.2-11.3,11.3c0,6.6,4.6,8.8,10.7,11.8
			c6,2.9,9.1,4.2,12.2,6.4c2.7,1.8,6.5,5,6.5,11.8c0,10.2-8.6,17.8-19,17.8c-7.9,0-11.9-3.7-14.2-6.4c-2.4-2.7-3.4-5.1-3.9-6.7
			l3.5-1.6c0.8,2.4,2.4,4.8,3.3,5.8c2.7,3.5,7.2,5.2,11.4,5.2c8.2,0,14.7-6,14.7-14.1c0-3.3-1.3-6.8-5.9-9.6
			c-1.7-1-5.3-2.8-10.3-5.3c-6-2.9-9-4.6-11.2-8c-1.4-2.3-1.9-4.6-1.9-6.9c0-7,4.8-15.2,15.6-15.2c6.1,0,11.7,2.9,14.8,8.7
			L458.2,50.6z"/>
		<path class="st1" d="M509.4,43.9h-25.2V66h24.7v3.7h-24.7v27.9h25.2v3.7h-29.3v-61h29.3V43.9z"/>
	</g>
	<g>
		<g>
			<path class="st0" d="M108.7,198.1v-82.7H125c7.3,0,20.1,1.1,30.5,11.5c8.8,8.8,11.9,20.8,11.9,29.9c0,9.1-3.1,21-11.9,29.8
				c-10.4,10.4-23.2,11.5-30.5,11.5H108.7z M114.1,193.1h10.8c21.8,0,36.8-14.9,36.8-36.3c0-21.2-15.1-36.5-36.8-36.5h-10.8V193.1z"
				/>
			<path class="st0" d="M225.7,120.4h-34.2v30H225v5h-33.5v37.8h34.2v5H186v-82.7h39.7V120.4z"/>
			<path class="st0" d="M282,129.4c-5.1-9.9-14-10.2-16.2-10.2c-9.8,0-15.4,7.1-15.4,15.4c0,8.9,6.2,11.9,14.5,16
				c8.2,4,12.3,5.7,16.5,8.7c3.6,2.5,8.8,6.8,8.8,16c0,13.9-11.7,24.2-25.8,24.2c-10.7,0-16.1-5.1-19.2-8.7
				c-3.2-3.7-4.6-6.9-5.3-9.1l4.7-2.2c1.1,3.2,3.2,6.4,4.5,7.9c3.7,4.7,9.8,7.1,15.5,7.1c11.2,0,20-8.2,20-19.1
				c0-4.5-1.7-9.2-8.1-13c-2.4-1.4-7.2-3.8-14-7.2c-8.2-4-12.3-6.2-15.1-10.9c-1.9-3.1-2.6-6.2-2.6-9.4c0-9.5,6.4-20.6,21.2-20.6
				c8.3,0,15.9,4,20.1,11.8L282,129.4z"/>
			<path class="st0" d="M314.3,115.4v82.7h-5.5v-82.7H314.3z"/>
			<path class="st0" d="M380.5,158.4h34.7c0,7.6-1.6,18.5-8.4,27.2c-7.3,9.3-18.5,13.9-31.1,13.9c-24.3,0-42.8-17.9-42.8-42.5
				c0-24.6,19.1-42.7,43.2-42.7c11.7,0,19.5,4,25.9,8.9c3.5,2.7,6.6,5.7,9.9,10.4l-4.3,3.5c-2.4-4-5.7-7.3-7.9-9.2
				c-5.2-4.3-13.4-8.7-23.7-8.7c-21.2,0-37.3,16.9-37.3,37.9c0,20.7,15.6,37.3,37,37.3c14.1,0,24.3-7.2,28.8-14
				c3.2-5,5.2-11.8,5.5-17.1h-29.3V158.4z"/>
			<path class="st0" d="M433.8,198.1v-83.6l69.5,72.7v-71.8h5.5v84.8l-69.5-72.7v70.6H433.8z"/>
		</g>
	</g>
</g>
<g>
	<g>
		<path class="st2" d="M57.9,207.5c3.5-12.2,3.3-21.9,0.5-32.7c-2.5-9.6-8.9-16.9-15.3-24.2c-15.8-18.4-25.3-43-15.7-67.4
			c0.1-0.3,0.5-0.2,0.5,0.1c-1.2,7.4,0,16.2,1.1,22c1.5,8.4,4.6,16,8.6,23.4c7,12.9,19.4,22.3,25.7,35.6
			C69.9,178.5,68,199.1,57.9,207.5z"/>
	</g>
	<g>
		<g>
			<g>
				<path class="st3" d="M59.1,34.9c0.1,0,0.2,0.2,0,0.2c-9.1,3.8-18,9.7-24.1,17.7c-5.4,7-8.8,14.8-10.5,24.3
					c0,0.1-0.1,0.1-0.2,0.1c-9.3-6-14.6-17.7-15.6-27.5C7.6,38,11,28.5,14.9,18.7C17,13.5,18.2,7.5,18.5,6c0-0.1,0.1-0.1,0.2,0
					c0.3,0.5,1.2,1.4,1.4,1.7c0.8,1.1,1.7,2.2,2.4,3.4c6,9.6,15.6,19.3,28.9,23C53.2,34.6,56.3,35,59.1,34.9z"/>
			</g>
		</g>
		<g>
			<path class="st3" d="M98.7,40.5c0,0,0,0.1,0,0.1c-2,0.4-6.2,7.3-7,8.6c-2.1,3.4-3.6,7.2-5.3,10.8c-3.4,7.3-7.4,14.7-14.1,19.8
				c-1.2,0.9-2.5,1.8-3.8,2.5c-9.3,5.2-20.9,6.1-30.9,2.2c-1.3-0.5-2.7-1.1-3.9-1.8c-1.3-0.8-0.8-2.7-0.6-3.9
				c1.5-10.2,9.8-22.1,18.2-28.7C62.9,40.8,78.6,34.4,98.7,40.5z"/>
		</g>
		<g>
			<g>
				<path class="st4" d="M74.5,30.9c-0.6,0-1.2-0.1-1.8-0.2c-0.1,0-0.1-0.1,0-0.2c3.1-1.5,6.4-3.2,7.3-6.4
					c3.9-13-16.8-18.1-26.3-17.6c-2.5,0.1-5.1,0.6-6.9,2.1c-2.8,2.5-1.5,6.1,1.1,8.5c2.8,2.6,6.6,4.3,10.3,4.8
					c2.4,0.3,5.4-0.4,5.8-2.7c0.3-1.5-0.8-3.2-2.1-4.2c-0.9-0.7-1.9-1.2-3-1.2c-1.1,0-2.2,0.5-2.6,1.5c-0.3,0.9,0.1,2,0.9,2.4
					c0.1,0,0.1,0.2,0,0.2c-1.3,0-2.6-1.4-2.6-2.7c0-1.5,1.2-2.7,2.5-3.1c7.6-2.6,20.8,6.7,13.1,13.8c-3.2,2.9-8.4,3.2-12.8,2.3
					c-9.1-1.9-19-7.4-24.5-15.2C24.3,0.6,49.3-0.5,55.7,0.1c14.5,1.3,30.3,8.6,33.7,19.6c1.1,3.5-0.4,6.3-3,8.2
					c-1.7,1.3-4,1.9-6.1,2.3c-1.2,0.2-2.3,0.4-3.5,0.5C76,30.9,75.2,30.9,74.5,30.9z"/>
			</g>
		</g>
	</g>
	<g>
		<path class="st2" d="M67.9,158.5c-0.2-0.3-0.4-0.6-0.5-1c-10.6-19.7-3.3-45,16.6-56.8c0.2-0.1,0.4-0.3,0.6-0.4
			c2.3-1.3,4.6-2.4,7.1-3.2c1.2,1.6,2.4,3.3,3.4,5.1c0.3,0.4,0.5,0.9,0.7,1.3c10.5,20,3.4,45-16.5,56.8c-0.2,0.1-0.4,0.2-0.6,0.3
			c-2.3,1.3-4.7,2.4-7.1,3.3C70.3,162.3,69.1,160.4,67.9,158.5z"/>
	</g>
	<g>
		<path class="st2" d="M7.4,148.6c0.4,0,0.8,0,1.2,0c23.6-0.2,43.7,19.1,45,43.4c0,0.3,0,0.5,0,0.8c0.1,2.8-0.1,5.5-0.5,8.2
			c-2.1,0.4-4.2,0.6-6.5,0.7c-0.5,0-1.1,0-1.6,0c-23.9,0-43.8-18.9-45-43.3c0-0.2,0-0.5,0-0.7c-0.1-2.8,0.1-5.6,0.5-8.2
			C2.7,149,5.1,148.7,7.4,148.6z"/>
	</g>
</g>
</svg>
