<?xml version="1.0" encoding="utf-8"?>
<!-- Generator: Adobe Illustrator 26.4.1, SVG Export Plug-In . SVG Version: 6.00 Build 0)  -->
<svg version="1.1" id="Layer_1" xmlns="http://www.w3.org/2000/svg" xmlns:xlink="http://www.w3.org/1999/xlink" x="0px" y="0px"
	 viewBox="0 0 179.2 369.2" style="enable-background:new 0 0 179.2 369.2;" xml:space="preserve">
<style type="text/css">
	.st0{fill:#221F1F;}
	.st1{fill:#F1636E;}
	.st2{fill:#EF4049;}
</style>
<g>
	<g>
		<path class="st0" d="M103.1,369.2c6.2-21.6,5.9-38.9,0.8-58.2c-4.5-17.1-15.9-30-27.2-43.1c-28.1-32.7-45.1-76.5-28-119.9
			c0.2-0.5,0.9-0.3,0.8,0.2c-2.1,13.2,0,28.8,1.9,39.2c2.7,14.9,8.2,28.5,15.4,41.7c12.5,22.9,34.5,39.7,45.7,63.4
			C124.3,317.6,120.9,354.3,103.1,369.2z"/>
	</g>
	<g>
		<g>
			<g>
				<path class="st1" d="M105.2,62.1c0.2,0,0.3,0.3,0.1,0.4c-16.3,6.7-32,17.2-43,31.4c-9.6,12.5-15.6,26.4-18.6,43.2
					c0,0.1-0.2,0.2-0.3,0.1c-16.6-10.7-26-31.4-27.7-48.9c-2.1-20.8,4-37.7,10.9-55c3.7-9.2,5.8-20,6.3-22.6c0-0.2,0.2-0.2,0.3-0.1
					c0.6,0.9,2.2,2.6,2.5,3c1.5,2,3,3.9,4.4,6.1c10.6,17.1,27.7,34.4,51.5,41C94.6,61.5,100.3,62.3,105.2,62.1z"/>
			</g>
		</g>
		<g>
			<path class="st1" d="M175.7,72.1c0.1,0,0.1,0.2,0,0.2c-3.5,0.7-11.1,13-12.4,15.2c-3.7,6.1-6.4,12.8-9.4,19.2
				c-6,13-13.2,26.1-25,35.2c-2.1,1.7-4.4,3.1-6.8,4.5c-16.6,9.2-37.3,10.8-55,3.8c-2.4-0.9-4.8-2-7-3.3c-2.4-1.4-1.5-4.7-1.1-7
				c2.7-18.2,17.4-39.4,32.3-51.1C112,72.7,139.8,61.3,175.7,72.1z"/>
		</g>
		<g>
			<g>
				<path class="st2" d="M132.5,55c-1.1,0-2.1-0.1-3.2-0.3c-0.1,0-0.2-0.2-0.1-0.3c5.5-2.6,11.3-5.7,13.1-11.4
					c7-23.1-29.9-32.2-46.8-31.4c-4.4,0.2-9,1-12.2,3.8c-5,4.4-2.7,10.8,1.9,15.1c5,4.7,11.7,7.7,18.4,8.5c4.3,0.5,9.6-0.8,10.4-4.8
					c0.5-2.8-1.4-5.6-3.8-7.4c-1.5-1.2-3.4-2.1-5.3-2.1c-1.9-0.1-3.9,0.9-4.5,2.6c-0.6,1.5,0.2,3.5,1.7,4.3c0.1,0.1,0.1,0.3-0.1,0.3
					c-2.4-0.1-4.6-2.5-4.6-4.9c0-2.6,2.1-4.7,4.5-5.6c13.4-4.6,37.1,12,23.2,24.6c-5.7,5.2-15,5.6-22.8,4C86,46.8,68.5,36.9,58.7,23
					C43.3,1,87.8-0.8,99,0.2c25.8,2.4,53.8,15.4,60,35c1.9,6.1-0.7,11.3-5.3,14.6c-3.1,2.3-7.1,3.3-10.9,4.1
					c-2.1,0.4-4.1,0.7-6.2,0.9C135.2,55,133.8,55,132.5,55z"/>
			</g>
		</g>
	</g>
	<g>
		<path class="st0" d="M120.9,282c-0.3-0.6-0.7-1.1-0.9-1.7c-18.8-35-5.8-80.1,29.5-101.1c0.4-0.2,0.7-0.5,1.1-0.7
			c4-2.3,8.2-4.2,12.6-5.7c2.2,2.8,4.3,5.8,6.1,9c0.5,0.8,0.9,1.6,1.3,2.4c18.7,35.5,6.1,80.1-29.3,101c-0.3,0.2-0.7,0.4-1,0.6
			c-4.1,2.3-8.4,4.3-12.6,5.8C125.1,288.7,122.9,285.5,120.9,282z"/>
	</g>
	<g>
		<path class="st0" d="M13.2,264.5c0.7,0,1.4,0,2.1,0c42-0.3,77.8,34,80,77.2c0,0.5,0.1,0.9,0.1,1.4c0.2,4.9-0.1,9.7-0.9,14.5
			c-3.7,0.7-7.6,1.1-11.5,1.3c-1,0-1.9,0-2.9,0c-42.5,0-77.9-33.7-80-77c0-0.4-0.1-0.8-0.1-1.2c-0.2-5,0.1-9.9,0.8-14.6
			C4.9,265.1,9,264.6,13.2,264.5z"/>
	</g>
</g>
</svg>
