<?xml version="1.0" encoding="utf-8"?>
<!-- Generator: Adobe Illustrator 26.3.1, SVG Export Plug-In . SVG Version: 6.00 Build 0)  -->
<svg version="1.1" id="Layer_1" xmlns="http://www.w3.org/2000/svg" xmlns:xlink="http://www.w3.org/1999/xlink" x="0px" y="0px"
	 viewBox="0 0 812.4 124.5" style="enable-background:new 0 0 812.4 124.5;" xml:space="preserve">
<style type="text/css">
	.st0{fill:#010101;}
	.st1{font-family:'FuturaPT-Light';}
	.st2{font-size:95.4349px;}
	.st3{letter-spacing:1;}
	.st4{fill:#ED2126;}
	.st5{letter-spacing:2;}
	.st6{font-size:96.43px;}
	.st7{fill:#221F1F;}
	.st8{fill:#F1636E;}
	.st9{fill:#EF4049;}
</style>
<g>
	<text transform="matrix(1.0002 0 0 1 56.0206 100.6301)" class="st0 st1 st2 st3">RIVER</text>
	<text transform="matrix(1.0002 0 0 1 266.1354 100.6301)" class="st4 st1 st2 st5">ROSE</text>
	<g>
		<text transform="matrix(1.0002 0 0 1 480.9557 100.3815)" class="st0 st1 st6">DESIGN</text>
	</g>
	<g>
		<g>
			<path class="st7" d="M52.4,46.4c0.1,0.2,0.2,0.4,0.3,0.5c5.3,10.9,0.7,24.5-10.3,30.4c-0.1,0.1-0.2,0.1-0.3,0.2
				c-1.3,0.6-2.6,1.2-3.9,1.6c-0.6-0.9-1.2-1.8-1.7-2.8c-0.1-0.2-0.2-0.5-0.4-0.7C30.8,64.4,35.2,51,46.3,45.1
				c0.1-0.1,0.2-0.1,0.3-0.2c1.3-0.7,2.6-1.2,3.9-1.6C51.2,44.3,51.9,45.3,52.4,46.4z"/>
		</g>
		<g>
			<path class="st7" d="M3.5,73.8c0.2,0,0.4-0.1,0.6-0.1c12.1-1.3,23.3,7.6,25.1,20c0,0.1,0,0.3,0.1,0.4c0.2,1.4,0.2,2.8,0.1,4.2
				c-1,0.3-2.1,0.5-3.3,0.7c-0.3,0-0.6,0.1-0.8,0.1c-12.2,1.2-23.3-7.5-25.1-19.9c0-0.1,0-0.2-0.1-0.4C0,77.3,0,75.9,0,74.5
				C1.2,74.2,2.3,74,3.5,73.8z"/>
		</g>
		<g>
			<path class="st7" d="M33.2,106.3c0.9-9.3,0.9-19.1-5.9-26.6c-9.6-10.1-15.8-24.7-9.8-37.8c-2.1,13.1,5,26,14.6,35.9
				C39.4,85.7,38.7,96.8,33.2,106.3L33.2,106.3z"/>
		</g>
		<g>
			<g>
				<path class="st8" d="M31.8,19.2c-4.5,1.9-8.8,4.7-11.7,8.5c-2.5,3.1-3.9,6.5-4.7,10.3c-4-2.3-5.9-7-6.5-11.4
					c-0.8-5.5,0-10.7,1.7-15.9c1.1-3.4,1.7-7.6,1.7-7.6c0,0.1,0.7,1,0.8,1.2c0.4,0.7,0.9,1.3,1.3,2c3,5.5,7.5,10.6,13.7,12.5
					C28.8,19.1,30.4,19.3,31.8,19.2z"/>
			</g>
		</g>
		<g>
			<path class="st8" d="M52.2,20.7c-3.9,2.9-5.8,6.9-7.5,10.6c-2.3,4.9-4.2,9-10,10.8c-5,1.5-13,2.3-14.3-0.9
				c-0.1-0.3-0.2-0.7-0.2-1.1c-0.1-3.7,4.5-10.8,7.5-13.4c4.9-4.3,13.3-6.3,20.9-6.3C49.8,20.5,51,20.6,52.2,20.7z"/>
		</g>
		<g>
			<g>
				<path class="st9" d="M40.8,17.8c-0.9,0-1.8-0.1-2.6-0.3c0.2,0,0.6-0.2,0.8-0.3c0.3-0.1,0.5-0.3,0.8-0.4c0.5-0.3,1-0.7,1.4-1.1
					c1.4-1.5,1.6-3.7,0.5-5.5c-0.5-0.8-1.2-1.6-1.9-2.2c-1.3-1.2-2.8-2.1-4.5-2.7c-0.8-0.3-1.6-0.5-2.4-0.7c-1-0.2-2.2-0.4-3.5-0.4
					c-1.8,0-3.5,0.3-4.6,1.3c-0.4,0.4-0.7,0.8-0.8,1.4c0,0.3,0.1,0.7,0.2,1c0.8,2.1,4.1,4.5,6.8,4.5c0.6,0,1.2-0.1,1.7-0.4
					c0.6-0.3,1.1-1,1-1.7c0-0.6-0.4-1.1-0.9-1.6c-0.5-0.5-1.2-1-1.9-1h-0.1c-0.7,0-1.5,0.5-1.4,1.2c0,0.5,0.5,0.9,0.9,1.3
					c-0.7-0.1-1.4-0.6-1.6-1.3c-0.2-0.7,0-1.4,0.6-1.9c0.4-0.3,0.9-0.4,1.4-0.5c0.3,0,0.5-0.1,0.8-0.1c2.1,0,4.2,1,5.5,2.7
					c0.2,0.2,0.3,0.5,0.4,0.7c1.2,2.4-0.4,5.7-3.1,6.1c-0.4,0.1-0.8,0.1-1.3,0.1c-3,0-6.3-1.6-8.7-3.1c-1.1-0.6-2.6-1.8-3.9-3.2
					c-1.3-1.4-2.4-3-2.4-4.5c-0.1-1.1,0.4-2.2,1.8-3c1.9-1.2,4.2-1.8,6.4-2.1c1-0.1,2-0.2,3-0.2C37,0,45.4,4,47.6,11.1
					C49.2,15.9,44.9,17.8,40.8,17.8z"/>
			</g>
		</g>
	</g>
</g>
</svg>
